<?xml version="1.0" encoding="UTF-8"?>
<svg xmlns="http://www.w3.org/2000/svg" viewBox="0 0 525.95 595.28">
  <defs>
    <style>
      .cls-1 {
        fill: #d1d3d4;
      }

      .cls-2 {
        font-family: CourierNewPS-BoldMT, 'Courier New';
        font-size: 76.72px;
        font-weight: 700;
      }

      .cls-2, .cls-3 {
        fill: #231f20;
      }

      .cls-4 {
        fill: #6d6e71;
      }

      .cls-5 {
        fill: #f1f2f2;
      }

      .cls-6 {
        stroke: #231f20;
        stroke-miterlimit: 10;
        stroke-width: 4px;
      }

      .cls-6, .cls-7 {
        fill: #fff;
      }

      .cls-8 {
        opacity: .76;
      }

      .cls-3 {
        opacity: .35;
      }
    </style>
  </defs>
  <g id="Layer_1" data-name="Layer 1">
    <polygon class="cls-6" points="518.83 445.37 518.83 149.93 262.98 2.21 7.12 149.93 7.12 445.37 262.98 593.09 518.83 445.37"/>
    <polyline class="cls-4" points="263.32 300.68 509.44 439.72 262.98 580.71 17.2 439.72 263.32 300.68"/>
  </g>
  <g id="Layer_6" data-name="Layer 6">
    <g>
      <polygon class="cls-7" points="270.49 310.22 270.49 350.91 264.91 354.15 263.27 355.1 246.53 345.35 230.31 335.92 230.31 333.51 246.53 324.11 264.91 313.46 270.49 310.22"/>
      <polygon class="cls-7" points="303.45 204.25 303.45 261.03 264.91 283.73 264.91 307.02 263.27 306.07 263.27 227.57 303.45 204.25"/>
      <polygon class="cls-7" points="294.04 300.65 303.45 295.07 303.45 331.78 294.04 337.24 294.04 300.65"/>
      <polygon class="cls-5" points="303.45 204.25 263.27 227.57 246.53 217.82 246.53 190.89 263.31 181.28 303.45 204.25"/>
      <polygon class="cls-1" points="294.04 300.65 294.04 337.24 270.49 350.91 270.49 310.22 264.91 307.02 264.91 283.73 294.04 300.65"/>
      <polygon class="cls-1" points="294.04 337.24 294.04 376.94 270.49 363.23 270.49 350.91 294.04 337.24"/>
      <polygon class="cls-7" points="270.49 310.22 270.49 363.23 264.91 359.98 264.91 313.46 270.49 310.22"/>
      <polygon class="cls-7" points="341.98 272.22 341.98 286.18 327.48 294.49 316.11 301 316.11 363.83 294.04 376.94 294.04 300.65 303.45 295.07 327.48 280.81 341.98 272.22"/>
      <polygon class="cls-5" points="341.98 272.22 327.48 280.81 303.45 295.07 294.04 300.65 264.91 283.73 303.45 261.03 312.8 255.52 327.48 263.93 341.98 272.22"/>
      <polygon class="cls-1" points="246.53 217.82 246.53 296.49 230.36 287.22 223.21 291.32 223.21 204.25 246.53 217.82"/>
      <polygon class="cls-1" points="221.19 119.63 221.19 292.48 202.22 303.36 202.22 278.35 183.31 267.52 182.91 267.75 182.91 97.35 221.19 119.63"/>
      <polygon class="cls-7" points="182.91 289.79 202.22 278.35 202.22 303.36 190.25 310.22 190.25 323.33 182.91 319.13 182.91 289.79"/>
      <polygon class="cls-7" points="246.53 324.11 246.53 361.88 230.31 371.52 230.31 333.51 246.53 324.11"/>
      <polygon class="cls-5" points="246.53 204.25 246.53 217.82 223.21 204.25 246.53 204.25"/>
      <polygon class="cls-5" points="246.53 190.89 246.53 204.25 223.21 204.25 246.53 190.89"/>
      <polygon class="cls-7" points="246.53 104.6 246.53 190.89 223.21 204.25 223.21 291.32 221.19 292.48 221.19 119.63 246.53 104.6"/>
      <polygon class="cls-7" points="336.86 373.23 336.86 380.57 330.63 376.94 336.86 373.23"/>
      <polygon class="cls-1" points="353.67 286 347.98 282.75 341.98 286.18 341.98 272.22 327.48 263.93 327.48 213.63 353.33 228.66 353.67 286"/>
      <polygon class="cls-7" points="341.98 272.22 341.98 286.18 327.48 294.49 327.48 280.81 341.98 272.22"/>
      <polygon class="cls-7" points="373.01 304.98 379.87 301 379.87 374.39 373.01 378.46 353.33 390.13 347.96 387.01 347.96 319.53 373.01 304.98"/>
      <polygon class="cls-7" points="379.87 212.91 379.87 301 373.01 297.09 353.67 286 353.33 228.66 373.01 216.99 379.87 212.91"/>
      <polygon class="cls-5" points="379.87 212.91 373.01 216.99 353.33 228.66 327.48 213.63 353.98 198.18 373.01 209.02 379.87 212.91"/>
      <polygon class="cls-5" points="246.53 104.6 221.19 119.63 182.91 97.35 208.2 82.63 246.53 104.6"/>
      <polygon class="cls-1" points="60.25 252.72 60.25 458.77 28.4 440.25 28.4 234.19 60.25 252.72"/>
      <polygon class="cls-7" points="92.18 234.19 92.18 244.08 88.17 241.79 72.68 250.82 72.68 451.55 60.25 458.77 60.25 252.72 92.18 234.19"/>
      <polygon class="cls-5" points="92.18 234.19 60.25 252.72 28.4 234.19 60.29 215.92 92.18 234.19"/>
      <polygon class="cls-1" points="140.19 252.53 140.19 320.38 133.47 316.54 116.57 326.5 116.57 238.8 140.19 252.53"/>
      <polygon class="cls-7" points="141.69 328.4 141.69 405.93 140.19 406.83 124.23 397.55 124.23 338.75 141.69 328.4"/>
      <polygon class="cls-7" points="179.07 229.47 179.07 270.02 152.23 285.81 152.23 319.78 145.74 323.56 140.19 320.38 140.19 252.53 179.07 229.47"/>
      <polygon class="cls-7" points="171.12 296.79 179.07 292.09 179.07 316.93 171.12 312.37 171.12 296.79"/>
      <polygon class="cls-5" points="179.07 229.47 140.19 252.53 116.57 238.8 155.4 215.92 179.07 229.47"/>
      <polygon class="cls-1" points="171.12 296.79 171.12 312.37 168.02 310.59 152.23 319.78 152.23 285.81 171.12 296.79"/>
      <polygon class="cls-7" points="202.22 278.35 202.22 303.36 190.25 310.22 190.25 323.33 182.91 319.13 179.07 316.93 171.12 312.37 171.12 296.79 179.07 292.09 182.91 289.79 202.22 278.35"/>
      <polygon class="cls-5" points="202.22 278.35 182.91 289.79 179.07 292.09 171.12 296.79 152.23 285.81 179.07 270.02 182.91 267.75 183.31 267.52 202.22 278.35"/>
      <polygon class="cls-1" points="396.47 192.6 396.47 337.47 392.51 339.81 392.51 404.52 379.87 397.15 379.87 212.91 373.01 209.02 373.01 178.96 396.47 192.6"/>
      <polygon class="cls-7" points="379.87 212.91 379.87 301 373.01 297.09 373.01 216.99 379.87 212.91"/>
      <polygon class="cls-7" points="373.01 304.98 379.87 301 379.87 397.15 373.01 393.17 373.01 304.98"/>
      <polygon class="cls-7" points="412.01 183.41 412.01 328.33 396.47 337.47 396.47 192.6 412.01 183.41"/>
      <polygon class="cls-5" points="412.01 183.41 396.47 192.6 373.01 178.96 388.5 169.93 412.01 183.41"/>
      <polygon class="cls-1" points="92.18 262.17 92.18 440.25 72.68 451.55 72.68 250.82 92.18 262.17"/>
      <polygon class="cls-1" points="96.14 264.46 96.14 478.67 72.68 465.03 72.68 451.55 92.18 440.25 92.18 262.17 96.14 264.46"/>
      <polygon class="cls-7" points="111.68 255.24 111.68 329.37 109.92 330.41 109.92 470.49 96.14 478.67 96.14 264.46 111.68 255.24"/>
      <polygon class="cls-5" points="111.68 255.24 96.14 264.46 92.18 262.17 72.68 250.82 88.17 241.79 92.18 244.08 111.68 255.24"/>
      <polygon class="cls-1" points="412.01 351.14 412.01 397.61 396.47 406.83 392.51 404.52 392.51 339.81 412.01 351.14"/>
      <polygon class="cls-1" points="413.86 352.23 413.86 434.71 392.51 422.3 392.51 404.52 396.47 406.83 412.01 397.61 412.01 351.14 413.86 352.23"/>
      <polygon class="cls-7" points="416.96 350.4 416.96 432.88 413.86 434.71 413.86 352.23 416.96 350.4"/>
      <polygon class="cls-7" points="449.01 331.38 449.01 413.87 446.05 415.63 439.29 419.64 439.29 332.84 446.05 331.82 449.01 331.38"/>
      <polygon class="cls-5" points="416.96 325.41 416.96 350.4 413.86 352.23 412.01 351.14 392.51 339.81 396.47 337.47 412.01 328.33 416.96 325.41"/>
      <polygon class="cls-7" points="449.01 331.38 446.05 333.14 439.29 337.15 439.29 325.83 446.05 329.69 449.01 331.38"/>
      <polygon class="cls-1" points="464.39 256.01 464.39 458.77 454.06 452.75 454.06 314.85 446.05 310.26 446.05 245.33 464.39 256.01"/>
      <polygon class="cls-7" points="454.06 314.85 454.06 452.75 446.05 448.1 446.05 319.6 454.06 314.85"/>
      <polygon class="cls-5" points="494.57 238.08 464.39 256.01 446.05 245.33 476.2 227.57 494.57 238.08"/>
      <polygon class="cls-7" points="494.57 238.08 494.57 440.87 464.39 458.77 464.39 256.01 494.57 238.08"/>
      <polygon class="cls-1" points="230.31 335.92 230.31 461.07 207.92 448.03 207.92 333.47 202.22 330.2 190.25 323.33 190.25 310.22 202.22 317.19 223.21 329.37 223.21 331.78 230.31 335.92"/>
      <polygon class="cls-7" points="270.49 310.22 270.49 437.75 230.31 461.07 230.31 333.51 246.53 324.11 264.91 313.46 270.49 310.22"/>
      <polygon class="cls-5" points="270.49 310.22 264.91 313.46 246.53 324.11 230.31 333.51 223.21 329.37 202.22 317.19 190.25 310.22 202.22 303.36 221.19 292.48 223.21 291.32 230.36 287.22 246.53 296.49 263.27 306.07 264.91 307.02 270.49 310.22"/>
      <polygon class="cls-7" points="336.86 399.31 336.86 490.48 320.95 499.92 316.11 497.1 313.29 495.46 313.29 399.63 316.11 399.58 336.86 399.31"/>
      <polygon class="cls-7" points="336.86 395.41 336.86 403.17 320.95 412.6 316.11 409.77 313.29 408.13 313.29 391.48 316.11 389.83 321.51 386.68 336.86 395.41"/>
      <polygon class="cls-1" points="347.96 387.01 347.96 525.58 336.86 519.12 336.86 490.48 343.53 486.52 343.53 399.21 336.86 395.41 336.86 380.57 347.96 387.01"/>
      <polygon class="cls-1" points="343.53 399.21 343.53 486.52 336.86 490.48 336.86 403.17 343.53 399.21"/>
      <polygon class="cls-1" points="347.96 319.53 347.96 387.01 336.86 380.57 336.86 373.23 327.48 367.86 327.48 357.09 341.98 348.47 341.98 316.05 347.96 319.53"/>
      <polygon class="cls-1" points="341.98 316.05 341.98 348.47 327.48 357.09 327.48 307.62 341.98 316.05"/>
      <polygon class="cls-1" points="327.48 307.62 327.48 357.09 316.11 363.83 316.11 301 327.48 307.62"/>
      <polygon class="cls-1" points="327.48 357.09 327.48 367.86 322.53 365.01 316.11 368.78 316.11 363.83 327.48 357.09"/>
      <polygon class="cls-1" points="343.53 399.21 336.86 399.31 336.86 395.41 343.53 399.21"/>
      <polygon class="cls-1" points="343.53 399.21 336.86 403.17 336.86 399.31 343.53 399.21"/>
      <polygon class="cls-7" points="336.86 373.23 336.86 519.12 316.11 507.06 316.11 385.55 330.63 376.94 336.86 373.23"/>
      <polygon class="cls-7" points="379.87 301 379.87 507.06 347.96 525.58 347.96 319.53 373.01 304.98 379.87 301"/>
      <polygon class="cls-5" points="379.87 301 373.01 304.98 347.96 319.53 341.98 316.05 327.48 307.62 316.11 301 327.48 294.49 341.98 286.18 347.98 282.75 353.67 286 373.01 297.09 379.87 301"/>
      <polygon class="cls-1" points="124.23 338.75 124.23 497.1 109.92 488.79 109.92 330.41 111.68 331.43 116.57 334.28 124.23 338.75"/>
      <polygon class="cls-7" points="141.69 328.4 141.69 486.77 124.23 497.1 124.23 338.75 141.69 328.4"/>
      <polygon class="cls-5" points="145.74 323.56 142.25 325.59 141.69 325.92 141.69 328.4 124.23 338.75 116.57 334.28 111.68 331.43 109.92 330.41 111.68 329.37 116.57 326.5 133.47 316.54 140.19 320.38 145.74 323.56"/>
      <polygon class="cls-1" points="313.29 387.22 313.29 545.59 303.03 539.62 303.03 455.3 298.98 452.98 298.98 378.88 313.29 387.22"/>
      <polygon class="cls-7" points="336.86 373.23 336.86 531.6 313.29 545.59 313.29 387.22 316.11 385.55 330.63 376.94 336.86 373.23"/>
      <polygon class="cls-5" points="336.86 373.23 330.63 376.94 316.11 385.55 313.29 387.22 298.98 378.88 316.11 368.78 322.53 365.01 327.48 367.86 336.86 373.23"/>
      <polygon class="cls-1" points="439.29 337.15 439.29 419.64 416.96 432.88 416.96 350.4 439.29 337.15"/>
      <polygon class="cls-1" points="439.29 332.84 439.29 337.15 416.96 350.4 416.96 336.15 439.29 332.84"/>
      <polygon class="cls-1" points="439.29 325.83 439.29 332.84 416.96 336.15 416.96 325.41 427.62 319.13 439.29 325.83"/>
      <polygon class="cls-1" points="439.29 323.6 439.29 325.83 427.62 319.13 416.96 325.41 416.96 310.61 439.29 323.6"/>
      <polygon class="cls-1" points="439.29 419.64 439.29 473.59 416.96 460.6 416.96 432.88 439.29 419.64"/>
      <polygon class="cls-7" points="454.06 314.85 454.06 464.84 439.29 473.59 439.29 323.6 446.05 319.6 454.06 314.85"/>
      <polygon class="cls-5" points="454.06 314.85 446.05 319.6 439.29 323.6 416.96 310.61 431.72 302.04 446.05 310.26 454.06 314.85"/>
      <polygon class="cls-1" points="181.55 349.1 181.55 414.06 171.12 420.24 152.23 409.26 152.23 399.7 147.83 402.29 141.69 405.93 141.69 325.92 143.8 327.15 147.83 329.49 152.23 332.06 179.07 347.66 181.55 349.1"/>
      <polygon class="cls-1" points="181.55 414.06 181.55 529.89 141.69 506.71 141.69 405.93 147.83 402.29 152.23 399.7 152.23 409.26 171.12 420.24 181.55 414.06"/>
      <polygon class="cls-7" points="207.92 448.03 207.92 514.26 181.55 529.89 181.55 414.06 190.25 408.89 190.25 437.75 207.92 448.03"/>
      <polygon class="cls-7" points="207.92 369.22 207.92 448.03 190.25 437.75 190.25 408.89 202.22 401.81 202.22 365.89 207.92 369.22"/>
      <polygon class="cls-7" points="202.22 365.89 202.22 401.81 190.25 408.89 190.25 358.92 202.22 365.89"/>
      <polygon class="cls-7" points="190.25 358.92 190.25 408.89 181.55 414.06 181.55 349.1 182.91 348.29 182.91 354.66 190.25 358.92"/>
      <polygon class="cls-7" points="190.25 343.94 190.25 358.92 182.91 354.66 182.91 348.29 190.25 343.94"/>
      <polygon class="cls-7" points="202.22 336.85 202.22 365.89 190.25 358.92 190.25 343.94 202.22 336.85"/>
      <polygon class="cls-7" points="207.92 333.47 207.92 369.22 202.22 365.89 202.22 336.85 207.92 333.47"/>
      <polygon class="cls-5" points="207.92 333.47 202.22 336.85 190.25 343.94 182.91 348.29 181.55 349.1 179.07 347.66 152.23 332.06 147.83 329.49 143.8 327.15 141.69 325.92 142.25 325.59 145.74 323.56 152.23 319.78 168.02 310.59 171.12 312.37 179.07 316.93 182.91 319.13 190.25 323.33 202.22 330.2 207.92 333.47"/>
      <polygon class="cls-7" points="303.03 539.62 303.03 550.34 262.55 574.35 262.55 479.34 298.98 457.71 298.98 537.25 303.03 539.62"/>
      <polygon class="cls-7" points="303.03 455.3 303.03 489.5 298.98 487.14 298.98 457.71 303.03 455.3"/>
      <polygon class="cls-1" points="262.55 479.34 262.55 574.35 237.93 560.04 237.93 465 262.55 479.34"/>
      <polygon class="cls-7" points="303.03 489.5 303.03 539.62 298.98 537.25 298.98 487.14 303.03 489.5"/>
      <polygon class="cls-5" points="303.03 455.3 298.98 457.71 262.55 479.34 237.93 465 278.39 441.17 298.98 452.98 303.03 455.3"/>
      <polygon class="cls-1" points="230.31 333.51 230.31 335.92 223.21 331.78 223.21 329.37 230.31 333.51"/>
      <polygon class="cls-1" points="263.27 227.57 263.27 306.07 246.53 296.49 246.53 217.82 263.27 227.57"/>
    </g>
  </g>
  <g id="Layer_3" data-name="Layer 3">
    <polyline class="cls-3" points="263.32 11.91 509.44 152.92 262.98 295.91 17.2 152.92 263.32 11.91"/>
  </g>
  <g id="Layer_4" data-name="Layer 4" class="cls-8">
    <polyline class="cls-5" points="263.32 20.84 303.44 43.82 263.26 67.13 223.2 43.82 263.32 20.84"/>
    <polyline class="cls-5" points="312.81 50.68 341.98 67.4 294.03 95.84 264.9 78.89 312.81 50.68"/>
    <polyline class="cls-5" points="353.97 73.26 379.87 87.97 353.32 103.72 327.48 88.69 353.97 73.26"/>
    <polyline class="cls-5" points="208.2 54.76 246.53 76.73 221.19 91.76 182.91 69.49 208.2 54.76"/>
    <polyline class="cls-5" points="60.29 134.39 92.18 152.66 60.25 171.18 28.41 152.66 60.29 134.39"/>
    <polyline class="cls-5" points="155.41 80.13 179.06 93.68 140.19 116.74 116.57 103 155.41 80.13"/>
    <polyline class="cls-5" points="185.13 128.45 204.05 139.29 172.95 157.74 154.06 146.75 185.13 128.45"/>
    <polyline class="cls-5" points="388.5 92.38 412 105.85 396.47 115.06 373 101.41 388.5 92.38"/>
    <polyline class="cls-5" points="88.18 166.54 111.68 180 96.14 189.22 72.68 175.57 88.18 166.54"/>
    <polyline class="cls-5" points="427.62 116.04 449.01 128.29 413.86 149.15 392.5 136.72 427.62 116.04"/>
    <polyline class="cls-5" points="476.21 142.3 494.57 152.82 464.39 170.73 446.05 160.06 476.21 142.3"/>
    <polyline class="cls-5" points="230.36 146.29 270.48 169.28 230.31 192.59 190.24 169.28 230.36 146.29"/>
    <polyline class="cls-5" points="347.99 202.11 379.87 220.37 347.94 238.9 316.1 220.37 347.99 202.11"/>
    <polyline class="cls-5" points="133.47 182.62 147.82 190.84 124.24 204.82 109.92 196.49 133.47 182.62"/>
    <polyline class="cls-5" points="322.53 233.71 336.87 241.92 313.3 255.91 298.97 247.58 322.53 233.71"/>
    <polyline class="cls-5" points="431.7 160.34 454.05 173.15 439.28 181.91 416.96 168.93 431.7 160.34"/>
    <polyline class="cls-5" points="168.01 201.25 207.91 224.11 181.54 239.75 141.7 216.57 168.01 201.25"/>
    <polyline class="cls-5" points="278.4 248.6 303.04 262.71 262.54 286.74 237.93 272.42 278.4 248.6"/>
  </g>
  <g id="Layer_5" data-name="Layer 5">
    <text class="cls-2" transform="translate(269.44 348.33) rotate(-30.09) scale(.86 .9) skewX(-27)"><tspan x="0" y="0">gloBFPr</tspan></text>
  </g>
</svg>