<?xml version="1.0" encoding="UTF-8"?>
<svg xmlns="http://www.w3.org/2000/svg" viewBox="0 0 525.95 595.28">
  <defs>
    <style>
      .cls-1 {
        fill: #d1d3d4;
      }

      .cls-2 {
        font-family: CourierNewPS-BoldMT, 'Courier New';
        font-size: 76.72px;
        font-weight: 700;
      }

      .cls-2, .cls-3 {
        fill: #231f20;
      }

      .cls-4 {
        fill: #6d6e71;
      }

      .cls-5 {
        fill: #f1f2f2;
      }

      .cls-6, .cls-7 {
        fill: #fff;
      }

      .cls-8 {
        opacity: .76;
      }

      .cls-7 {
        stroke: #231f20;
        stroke-miterlimit: 10;
      }

      .cls-3 {
        opacity: .35;
      }
    </style>
  </defs>
  <g id="Layer_1" data-name="Layer 1">
    <polygon class="cls-7" points="518.41 444.16 518.41 148.72 262.55 1 6.69 148.72 6.69 444.16 262.55 591.88 518.41 444.16"/>
    <polyline class="cls-4" points="262.89 299.46 509.01 438.51 262.55 579.5 16.78 438.51 262.89 299.46"/>
  </g>
  <g id="Layer_6" data-name="Layer 6">
    <g>
      <polygon class="cls-6" points="270.07 309.01 270.07 349.69 264.49 352.94 262.84 353.89 246.1 344.14 229.89 334.71 229.89 332.3 246.1 322.9 264.49 312.25 270.07 309.01"/>
      <polygon class="cls-6" points="303.02 203.04 303.02 259.82 264.49 282.51 264.49 305.81 262.84 304.86 262.84 226.36 303.02 203.04"/>
      <polygon class="cls-6" points="293.62 299.44 303.02 293.86 303.02 330.57 293.62 336.03 293.62 299.44"/>
      <polygon class="cls-5" points="303.02 203.04 262.84 226.36 246.1 216.61 246.1 189.68 262.89 180.07 303.02 203.04"/>
      <polygon class="cls-1" points="293.62 299.44 293.62 336.03 270.07 349.69 270.07 309.01 264.49 305.81 264.49 282.51 293.62 299.44"/>
      <polygon class="cls-1" points="293.62 336.03 293.62 375.72 270.07 362.01 270.07 349.69 293.62 336.03"/>
      <polygon class="cls-6" points="270.07 309.01 270.07 362.01 264.49 358.77 264.49 312.25 270.07 309.01"/>
      <polygon class="cls-6" points="341.55 271.01 341.55 284.97 327.06 293.28 315.69 299.79 315.69 362.62 293.62 375.72 293.62 299.44 303.02 293.86 327.06 279.6 341.55 271.01"/>
      <polygon class="cls-5" points="341.55 271.01 327.06 279.6 303.02 293.86 293.62 299.44 264.49 282.51 303.02 259.82 312.38 254.31 327.06 262.71 341.55 271.01"/>
      <polygon class="cls-1" points="246.1 216.61 246.1 295.27 229.94 286.01 222.78 290.11 222.78 203.04 246.1 216.61"/>
      <polygon class="cls-1" points="220.77 118.42 220.77 291.27 201.8 302.15 201.8 277.14 182.88 266.3 182.49 266.54 182.49 96.14 220.77 118.42"/>
      <polygon class="cls-6" points="182.49 288.58 201.8 277.14 201.8 302.15 189.83 309.01 189.83 322.11 182.49 317.92 182.49 288.58"/>
      <polygon class="cls-6" points="246.1 322.9 246.1 360.67 229.89 370.3 229.89 332.3 246.1 322.9"/>
      <polygon class="cls-5" points="246.1 203.04 246.1 216.61 222.78 203.04 246.1 203.04"/>
      <polygon class="cls-5" points="246.1 189.68 246.1 203.04 222.78 203.04 246.1 189.68"/>
      <polygon class="cls-6" points="246.1 103.39 246.1 189.68 222.78 203.04 222.78 290.11 220.77 291.27 220.77 118.42 246.1 103.39"/>
      <polygon class="cls-6" points="336.44 372.02 336.44 379.36 330.21 375.72 336.44 372.02"/>
      <polygon class="cls-1" points="353.25 284.78 347.55 281.54 341.55 284.97 341.55 271.01 327.06 262.71 327.06 212.42 352.9 227.45 353.25 284.78"/>
      <polygon class="cls-6" points="341.55 271.01 341.55 284.97 327.06 293.28 327.06 279.6 341.55 271.01"/>
      <polygon class="cls-6" points="372.59 303.77 379.44 299.79 379.44 373.18 372.59 377.25 352.9 388.92 347.53 385.8 347.53 318.32 372.59 303.77"/>
      <polygon class="cls-6" points="379.44 211.7 379.44 299.79 372.59 295.88 353.25 284.78 352.9 227.45 372.59 215.77 379.44 211.7"/>
      <polygon class="cls-5" points="379.44 211.7 372.59 215.77 352.9 227.45 327.06 212.42 353.55 196.97 372.59 207.81 379.44 211.7"/>
      <polygon class="cls-5" points="246.1 103.39 220.77 118.42 182.49 96.14 207.77 81.41 246.1 103.39"/>
      <polygon class="cls-1" points="59.82 251.51 59.82 457.56 27.98 439.04 27.98 232.98 59.82 251.51"/>
      <polygon class="cls-6" points="91.75 232.98 91.75 242.87 87.75 240.58 72.26 249.61 72.26 450.34 59.82 457.56 59.82 251.51 91.75 232.98"/>
      <polygon class="cls-5" points="91.75 232.98 59.82 251.51 27.98 232.98 59.87 214.71 91.75 232.98"/>
      <polygon class="cls-1" points="139.76 251.32 139.76 319.17 133.04 315.33 116.14 325.29 116.14 237.59 139.76 251.32"/>
      <polygon class="cls-6" points="141.27 327.19 141.27 404.72 139.76 405.62 123.8 396.33 123.8 337.54 141.27 327.19"/>
      <polygon class="cls-6" points="178.64 228.26 178.64 268.81 151.8 284.6 151.8 318.57 145.32 322.35 139.76 319.17 139.76 251.32 178.64 228.26"/>
      <polygon class="cls-6" points="170.7 295.58 178.64 290.87 178.64 315.72 170.7 311.16 170.7 295.58"/>
      <polygon class="cls-5" points="178.64 228.26 139.76 251.32 116.14 237.59 154.97 214.71 178.64 228.26"/>
      <polygon class="cls-1" points="170.7 295.58 170.7 311.16 167.6 309.38 151.8 318.57 151.8 284.6 170.7 295.58"/>
      <polygon class="cls-6" points="201.8 277.14 201.8 302.15 189.83 309.01 189.83 322.11 182.49 317.92 178.64 315.72 170.7 311.16 170.7 295.58 178.64 290.87 182.49 288.58 201.8 277.14"/>
      <polygon class="cls-5" points="201.8 277.14 182.49 288.58 178.64 290.87 170.7 295.58 151.8 284.6 178.64 268.81 182.49 266.54 182.88 266.3 201.8 277.14"/>
      <polygon class="cls-1" points="396.04 191.39 396.04 336.26 392.08 338.6 392.08 403.3 379.44 395.94 379.44 211.7 372.59 207.81 372.59 177.75 396.04 191.39"/>
      <polygon class="cls-6" points="379.44 211.7 379.44 299.79 372.59 295.88 372.59 215.77 379.44 211.7"/>
      <polygon class="cls-6" points="372.59 303.77 379.44 299.79 379.44 395.94 372.59 391.96 372.59 303.77"/>
      <polygon class="cls-6" points="411.58 182.2 411.58 327.12 396.04 336.26 396.04 191.39 411.58 182.2"/>
      <polygon class="cls-5" points="411.58 182.2 396.04 191.39 372.59 177.75 388.08 168.72 411.58 182.2"/>
      <polygon class="cls-1" points="91.75 260.95 91.75 439.04 72.26 450.34 72.26 249.61 91.75 260.95"/>
      <polygon class="cls-1" points="95.71 263.25 95.71 477.45 72.26 463.81 72.26 450.34 91.75 439.04 91.75 260.95 95.71 263.25"/>
      <polygon class="cls-6" points="111.25 254.03 111.25 328.16 109.49 329.2 109.49 469.28 95.71 477.45 95.71 263.25 111.25 254.03"/>
      <polygon class="cls-5" points="111.25 254.03 95.71 263.25 91.75 260.95 72.26 249.61 87.75 240.58 91.75 242.87 111.25 254.03"/>
      <polygon class="cls-1" points="411.58 349.93 411.58 396.4 396.04 405.62 392.08 403.3 392.08 338.6 411.58 349.93"/>
      <polygon class="cls-1" points="413.44 351.01 413.44 433.5 392.08 421.09 392.08 403.3 396.04 405.62 411.58 396.4 411.58 349.93 413.44 351.01"/>
      <polygon class="cls-6" points="416.54 349.18 416.54 431.67 413.44 433.5 413.44 351.01 416.54 349.18"/>
      <polygon class="cls-6" points="448.59 330.17 448.59 412.66 445.62 414.42 438.86 418.43 438.86 331.63 445.62 330.61 448.59 330.17"/>
      <polygon class="cls-5" points="416.54 324.2 416.54 349.18 413.44 351.01 411.58 349.93 392.08 338.6 396.04 336.26 411.58 327.12 416.54 324.2"/>
      <polygon class="cls-6" points="448.59 330.17 445.62 331.93 438.86 335.94 438.86 324.61 445.62 328.48 448.59 330.17"/>
      <polygon class="cls-1" points="463.97 254.79 463.97 457.56 453.64 451.54 453.64 313.64 445.62 309.05 445.62 244.12 463.97 254.79"/>
      <polygon class="cls-6" points="453.64 313.64 453.64 451.54 445.62 446.89 445.62 318.39 453.64 313.64"/>
      <polygon class="cls-5" points="494.14 236.87 463.97 254.79 445.62 244.12 475.78 226.36 494.14 236.87"/>
      <polygon class="cls-6" points="494.14 236.87 494.14 439.66 463.97 457.56 463.97 254.79 494.14 236.87"/>
      <polygon class="cls-1" points="229.89 334.71 229.89 459.85 207.5 446.82 207.5 332.26 201.8 328.99 189.83 322.11 189.83 309.01 201.8 315.98 222.78 328.16 222.78 330.57 229.89 334.71"/>
      <polygon class="cls-6" points="270.07 309.01 270.07 436.54 229.89 459.85 229.89 332.3 246.1 322.9 264.49 312.25 270.07 309.01"/>
      <polygon class="cls-5" points="270.07 309.01 264.49 312.25 246.1 322.9 229.89 332.3 222.78 328.16 201.8 315.98 189.83 309.01 201.8 302.15 220.77 291.27 222.78 290.11 229.94 286.01 246.1 295.27 262.84 304.86 264.49 305.81 270.07 309.01"/>
      <polygon class="cls-6" points="336.44 398.09 336.44 489.26 320.53 498.71 315.69 495.89 312.86 494.24 312.86 398.42 315.69 398.37 336.44 398.09"/>
      <polygon class="cls-6" points="336.44 394.2 336.44 401.96 320.53 411.39 315.69 408.56 312.86 406.92 312.86 390.27 315.69 388.62 321.08 385.47 336.44 394.2"/>
      <polygon class="cls-1" points="347.53 385.8 347.53 524.37 336.44 517.91 336.44 489.26 343.11 485.3 343.11 398 336.44 394.2 336.44 379.36 347.53 385.8"/>
      <polygon class="cls-1" points="343.11 398 343.11 485.3 336.44 489.26 336.44 401.96 343.11 398"/>
      <polygon class="cls-1" points="347.53 318.32 347.53 385.8 336.44 379.36 336.44 372.02 327.06 366.65 327.06 355.88 341.55 347.26 341.55 314.84 347.53 318.32"/>
      <polygon class="cls-1" points="341.55 314.84 341.55 347.26 327.06 355.88 327.06 306.41 341.55 314.84"/>
      <polygon class="cls-1" points="327.06 306.41 327.06 355.88 315.69 362.62 315.69 299.79 327.06 306.41"/>
      <polygon class="cls-1" points="327.06 355.88 327.06 366.65 322.1 363.8 315.69 367.57 315.69 362.62 327.06 355.88"/>
      <polygon class="cls-1" points="343.11 398 336.44 398.09 336.44 394.2 343.11 398"/>
      <polygon class="cls-1" points="343.11 398 336.44 401.96 336.44 398.09 343.11 398"/>
      <polygon class="cls-6" points="336.44 372.02 336.44 517.91 315.69 505.85 315.69 384.34 330.21 375.72 336.44 372.02"/>
      <polygon class="cls-6" points="379.44 299.79 379.44 505.85 347.53 524.37 347.53 318.32 372.59 303.77 379.44 299.79"/>
      <polygon class="cls-5" points="379.44 299.79 372.59 303.77 347.53 318.32 341.55 314.84 327.06 306.41 315.69 299.79 327.06 293.28 341.55 284.97 347.55 281.54 353.25 284.78 372.59 295.88 379.44 299.79"/>
      <polygon class="cls-1" points="123.8 337.54 123.8 495.89 109.49 487.57 109.49 329.2 111.25 330.22 116.14 333.07 123.8 337.54"/>
      <polygon class="cls-6" points="141.27 327.19 141.27 485.56 123.8 495.89 123.8 337.54 141.27 327.19"/>
      <polygon class="cls-5" points="145.32 322.35 141.82 324.38 141.27 324.71 141.27 327.19 123.8 337.54 116.14 333.07 111.25 330.22 109.49 329.2 111.25 328.16 116.14 325.29 133.04 315.33 139.76 319.17 145.32 322.35"/>
      <polygon class="cls-1" points="312.86 386.01 312.86 544.38 302.6 538.41 302.6 454.09 298.55 451.77 298.55 377.67 312.86 386.01"/>
      <polygon class="cls-6" points="336.44 372.02 336.44 530.39 312.86 544.38 312.86 386.01 315.69 384.34 330.21 375.72 336.44 372.02"/>
      <polygon class="cls-5" points="336.44 372.02 330.21 375.72 315.69 384.34 312.86 386.01 298.55 377.67 315.69 367.57 322.1 363.8 327.06 366.65 336.44 372.02"/>
      <polygon class="cls-1" points="438.86 335.94 438.86 418.43 416.54 431.67 416.54 349.18 438.86 335.94"/>
      <polygon class="cls-1" points="438.86 331.63 438.86 335.94 416.54 349.18 416.54 334.94 438.86 331.63"/>
      <polygon class="cls-1" points="438.86 324.61 438.86 331.63 416.54 334.94 416.54 324.2 427.19 317.92 438.86 324.61"/>
      <polygon class="cls-1" points="438.86 322.39 438.86 324.61 427.19 317.92 416.54 324.2 416.54 309.4 438.86 322.39"/>
      <polygon class="cls-1" points="438.86 418.43 438.86 472.38 416.54 459.39 416.54 431.67 438.86 418.43"/>
      <polygon class="cls-6" points="453.64 313.64 453.64 463.63 438.86 472.38 438.86 322.39 445.62 318.39 453.64 313.64"/>
      <polygon class="cls-5" points="453.64 313.64 445.62 318.39 438.86 322.39 416.54 309.4 431.29 300.83 445.62 309.05 453.64 313.64"/>
      <polygon class="cls-1" points="181.12 347.89 181.12 412.84 170.7 419.03 151.8 408.05 151.8 398.49 147.4 401.08 141.27 404.72 141.27 324.71 143.37 325.93 147.4 328.27 151.8 330.84 178.64 346.45 181.12 347.89"/>
      <polygon class="cls-1" points="181.12 412.84 181.12 528.68 141.27 505.5 141.27 404.72 147.4 401.08 151.8 398.49 151.8 408.05 170.7 419.03 181.12 412.84"/>
      <polygon class="cls-6" points="207.5 446.82 207.5 513.05 181.12 528.68 181.12 412.84 189.83 407.68 189.83 436.54 207.5 446.82"/>
      <polygon class="cls-6" points="207.5 368.01 207.5 446.82 189.83 436.54 189.83 407.68 201.8 400.59 201.8 364.68 207.5 368.01"/>
      <polygon class="cls-6" points="201.8 364.68 201.8 400.59 189.83 407.68 189.83 357.71 201.8 364.68"/>
      <polygon class="cls-6" points="189.83 357.71 189.83 407.68 181.12 412.84 181.12 347.89 182.49 347.08 182.49 353.45 189.83 357.71"/>
      <polygon class="cls-6" points="189.83 342.72 189.83 357.71 182.49 353.45 182.49 347.08 189.83 342.72"/>
      <polygon class="cls-6" points="201.8 335.64 201.8 364.68 189.83 357.71 189.83 342.72 201.8 335.64"/>
      <polygon class="cls-6" points="207.5 332.26 207.5 368.01 201.8 364.68 201.8 335.64 207.5 332.26"/>
      <polygon class="cls-5" points="207.5 332.26 201.8 335.64 189.83 342.72 182.49 347.08 181.12 347.89 178.64 346.45 151.8 330.84 147.4 328.27 143.37 325.93 141.27 324.71 141.82 324.38 145.32 322.35 151.8 318.57 167.6 309.38 170.7 311.16 178.64 315.72 182.49 317.92 189.83 322.11 201.8 328.99 207.5 332.26"/>
      <polygon class="cls-6" points="302.6 538.41 302.6 549.13 262.12 573.14 262.12 478.13 298.55 456.5 298.55 536.04 302.6 538.41"/>
      <polygon class="cls-6" points="302.6 454.09 302.6 488.29 298.55 485.93 298.55 456.5 302.6 454.09"/>
      <polygon class="cls-1" points="262.12 478.13 262.12 573.14 237.51 558.83 237.51 463.79 262.12 478.13"/>
      <polygon class="cls-6" points="302.6 488.29 302.6 538.41 298.55 536.04 298.55 485.93 302.6 488.29"/>
      <polygon class="cls-5" points="302.6 454.09 298.55 456.5 262.12 478.13 237.51 463.79 277.96 439.96 298.55 451.77 302.6 454.09"/>
      <polygon class="cls-1" points="229.89 332.3 229.89 334.71 222.78 330.57 222.78 328.16 229.89 332.3"/>
      <polygon class="cls-1" points="262.84 226.36 262.84 304.86 246.1 295.27 246.1 216.61 262.84 226.36"/>
    </g>
  </g>
  <g id="Layer_3" data-name="Layer 3">
    <polyline class="cls-3" points="262.89 10.7 509.01 151.71 262.55 294.69 16.78 151.71 262.89 10.7"/>
  </g>
  <g id="Layer_4" data-name="Layer 4" class="cls-8">
    <polyline class="cls-5" points="262.89 19.63 303.01 42.61 262.84 65.92 222.77 42.61 262.89 19.63"/>
    <polyline class="cls-5" points="312.38 49.47 341.55 66.19 293.61 94.63 264.48 77.68 312.38 49.47"/>
    <polyline class="cls-5" points="353.54 72.05 379.45 86.76 352.9 102.51 327.05 87.48 353.54 72.05"/>
    <polyline class="cls-5" points="207.77 53.55 246.11 75.52 220.77 90.55 182.48 68.27 207.77 53.55"/>
    <polyline class="cls-5" points="59.87 133.18 91.75 151.45 59.82 169.97 27.98 151.45 59.87 133.18"/>
    <polyline class="cls-5" points="154.98 78.92 178.63 92.47 139.76 115.53 116.15 101.79 154.98 78.92"/>
    <polyline class="cls-5" points="184.71 127.24 203.63 138.08 172.53 156.53 153.63 145.54 184.71 127.24"/>
    <polyline class="cls-5" points="388.07 91.17 411.57 104.64 396.04 113.85 372.57 100.2 388.07 91.17"/>
    <polyline class="cls-5" points="87.75 165.33 111.25 178.79 95.72 188.01 72.25 174.35 87.75 165.33"/>
    <polyline class="cls-5" points="427.19 114.83 448.58 127.08 413.43 147.93 392.07 135.51 427.19 114.83"/>
    <polyline class="cls-5" points="475.78 141.09 494.15 151.61 463.96 169.52 445.62 158.85 475.78 141.09"/>
    <polyline class="cls-5" points="229.94 145.08 270.06 168.07 229.88 191.38 189.82 168.07 229.94 145.08"/>
    <polyline class="cls-5" points="347.56 200.89 379.45 219.16 347.52 237.68 315.68 219.16 347.56 200.89"/>
    <polyline class="cls-5" points="133.05 181.41 147.39 189.63 123.81 203.61 109.49 195.28 133.05 181.41"/>
    <polyline class="cls-5" points="322.1 232.49 336.45 240.71 312.87 254.7 298.55 246.36 322.1 232.49"/>
    <polyline class="cls-5" points="431.28 159.13 453.63 171.93 438.86 180.7 416.54 167.71 431.28 159.13"/>
    <polyline class="cls-5" points="167.59 200.04 207.48 222.9 181.11 238.54 141.27 215.36 167.59 200.04"/>
    <polyline class="cls-5" points="277.97 247.38 302.61 261.5 262.11 285.53 237.5 271.21 277.97 247.38"/>
  </g>
  <g id="Layer_5" data-name="Layer 5">
    <text class="cls-2" transform="translate(269.06 347.19) rotate(-30.09) scale(.86 .9) skewX(-27)"><tspan x="0" y="0">gloBFPr</tspan></text>
  </g>
</svg>